<svg width="130" height="60" viewBox="0 0 130 60" fill="none" xmlns="http://www.w3.org/2000/svg">
<path d="M87.3707 0V26.4H85.4927V1.686H84.0707C79.7206 1.686 75.1127 3.63 75.1127 10.524V11.238C75.1127 16.368 75.1907 22.794 71.7047 25.416C71.0145 25.9491 70.2189 26.3295 69.3707 26.532L68.1707 25.14C69.1481 24.9179 70.0513 24.4466 70.7927 23.772C73.1927 21.462 73.3007 15.198 73.3007 10.848C73.2767 2.808 79.0667 0 83.0087 0H87.3707Z" fill="#29A366"/>
<path d="M93.3046 0V12.18H94.6726L104.783 0H106.937L96.4786 12.336C101.453 12.804 103.217 15.624 104.741 19.422C105.761 22.044 106.463 24.222 107.561 26.394H105.563C104.568 24.2768 103.692 22.1054 102.941 19.89C101.531 16.092 99.6106 13.662 94.3666 13.662H93.3106V26.4H91.4326V0H93.3046Z" fill="#29A366"/>
<path d="M113.243 0V13.158C113.243 17.31 113.201 20.328 112.931 23.85L113.009 23.928C114.515 21.0571 116.188 18.2763 118.019 15.6L128.279 0H130.001V26.4H128.201V13.038C128.201 8.652 128.237 5.796 128.435 2.544L128.357 2.508C126.781 5.44024 125.057 8.28997 123.191 11.046L113.123 26.4H111.437V0H113.243Z" fill="#29A366"/>
<path d="M60.7006 34.8H52.0846V33.252H71.1946V34.8H62.5786V59.646H60.7006V34.8Z" fill="#F10D33"/>
<path d="M94.1986 46.0981C94.1986 55.4161 88.7146 60.0001 82.8586 60.0001C76.6246 60.0001 71.7826 54.8701 71.7826 46.6081C71.7826 37.9561 76.8106 32.7061 83.1826 32.7061C89.5546 32.7061 94.1986 37.9141 94.1986 46.0981ZM73.6606 46.5661C73.6606 52.5181 76.9666 58.4341 82.9726 58.4341C88.9786 58.4341 92.3146 52.7581 92.3146 46.2001C92.3146 40.6021 89.3866 34.2541 83.0386 34.2541C76.6906 34.2541 73.6606 40.3801 73.6606 46.5661Z" fill="#F10D33"/>
<path d="M97.9366 33.4857C99.8124 33.1553 101.714 32.9926 103.619 32.9997C106.751 32.9997 109.139 33.8217 110.591 35.2317C111.272 35.9044 111.804 36.712 112.155 37.6027C112.505 38.4934 112.665 39.4475 112.625 40.4037C112.724 42.3386 112.063 44.2357 110.783 45.6897C109.097 47.6097 106.277 48.6237 103.031 48.6237C101.951 48.6697 100.871 48.5646 99.8206 48.3117V59.5917H97.9427L97.9366 33.4857ZM99.8146 46.6437C100.909 46.9509 102.045 47.0826 103.181 47.0337C107.921 47.0337 110.741 44.7597 110.741 40.5717C110.741 36.3837 107.741 34.5417 103.541 34.5417C102.293 34.5204 101.047 34.625 99.8206 34.8537L99.8146 46.6437Z" fill="#F10D33"/>
<path d="M130.001 33.252H115.499V59.652H117.377V34.842L122.903 40.422L130.001 33.252Z" fill="#F10D33"/>
<path d="M59.1826 19.224L53.9626 24.498V13.278H64.4986V11.706H53.9626V1.566H65.1286V0H52.0846V26.394H52.2766H66.5866L59.1826 19.224Z" fill="#29A366"/>
<path d="M27.8507 40.1399H37.7627C41.2127 40.1399 42.3767 37.1399 40.0067 34.7939L27.7667 22.4219H15.3227L3.07669 34.7999C0.676694 37.1999 1.87669 40.1459 5.32069 40.1459H15.2327L21.5447 33.7619L27.8507 40.1399Z" fill="#29A366"/>
<path d="M27.8506 40.1401H15.2506L1.36062 54.1561C-1.23138 56.7481 0.0406234 60.0001 3.81462 60.0001H15.3226L21.5446 53.7121L27.7666 60.0001H39.2746C43.0426 60.0001 44.3206 56.7481 41.7286 54.1561L27.8506 40.1401Z" fill="#29A366"/>
<path d="M27.7666 22.422H36.6946C39.9166 22.422 41.0086 19.644 38.7886 17.424L21.5446 0L4.29462 17.4C2.08062 19.614 3.16662 22.398 6.38862 22.398H15.3226L21.5446 16.134L27.7666 22.422Z" fill="#F10D33"/>
</svg>
